<svg width="1074" height="1061" viewBox="0 0 1074 1061" fill="none" xmlns="http://www.w3.org/2000/svg">
<g clip-path="url(#clip0_553_340)">
<path d="M1250.27 -7.63916H-193.032V1073.89H1250.27V-7.63916Z" fill="#383C42"/>
<g opacity="0.3">
<path d="M885.815 966.378C895.101 966.378 902.63 958.852 902.63 949.567C902.63 940.283 895.101 932.756 885.815 932.756C876.528 932.756 869 940.283 869 949.567C869 958.852 876.528 966.378 885.815 966.378Z" fill="#E4E3FF"/>
<path d="M123.503 572.688C132.79 572.688 140.318 565.162 140.318 555.877C140.318 546.593 132.79 539.066 123.503 539.066C114.217 539.066 106.688 546.593 106.688 555.877C106.688 565.162 114.217 572.688 123.503 572.688Z" fill="#E4E3FF"/>
<path d="M114.389 81.6219C123.676 81.6219 131.204 74.0954 131.204 64.811C131.204 55.5265 123.676 48 114.389 48C105.103 48 97.5742 55.5265 97.5742 64.811C97.5742 74.0954 105.103 81.6219 114.389 81.6219Z" fill="#E4E3FF"/>
<path d="M52.5183 107.097C56.7709 107.097 60.2183 103.651 60.2183 99.3993C60.2183 95.1477 56.7709 91.7012 52.5183 91.7012C48.2657 91.7012 44.8184 95.1477 44.8184 99.3993C44.8184 103.651 48.2657 107.097 52.5183 107.097Z" fill="#E4E3FF"/>
<path d="M969.311 75.6219C978.598 75.6219 986.126 68.0954 986.126 58.811C986.126 49.5265 978.598 42 969.311 42C960.024 42 952.496 49.5265 952.496 58.811C952.496 68.0954 960.024 75.6219 969.311 75.6219Z" fill="#E4E3FF"/>
<path d="M907.44 101.109C911.693 101.109 915.14 97.6626 915.14 93.411C915.14 89.1595 911.693 85.7129 907.44 85.7129C903.188 85.7129 899.74 89.1595 899.74 93.411C899.74 97.6626 903.188 101.109 907.44 101.109Z" fill="#E4E3FF"/>
<path d="M44.7 300.801C48.9525 300.801 52.3999 297.354 52.3999 293.103C52.3999 288.851 48.9525 285.405 44.7 285.405C40.4474 285.405 37 288.851 37 293.103C37 297.354 40.4474 300.801 44.7 300.801Z" fill="#E4E3FF"/>
<path d="M602.646 998.609C606.899 998.609 610.346 995.162 610.346 990.911C610.346 986.659 606.899 983.212 602.646 983.212C598.394 983.212 594.946 986.659 594.946 990.911C594.946 995.162 598.394 998.609 602.646 998.609Z" fill="#E4E3FF"/>
<path d="M68.1062 805.66C72.3588 805.66 75.8062 802.213 75.8062 797.962C75.8062 793.71 72.3588 790.264 68.1062 790.264C63.8536 790.264 60.4062 793.71 60.4062 797.962C60.4062 802.213 63.8536 805.66 68.1062 805.66Z" fill="#FFF3F1"/>
<path d="M100.652 528.904C103.986 528.904 106.689 526.202 106.689 522.868C106.689 519.535 103.986 516.833 100.652 516.833C97.3173 516.833 94.6143 519.535 94.6143 522.868C94.6143 526.202 97.3173 528.904 100.652 528.904Z" fill="#FFF3F1"/>
<path d="M140.318 1013.57C144.571 1013.57 148.018 1010.12 148.018 1005.87C148.018 1001.62 144.571 998.173 140.318 998.173C136.066 998.173 132.618 1001.62 132.618 1005.87C132.618 1010.12 136.066 1013.57 140.318 1013.57Z" fill="#FFF3F1"/>
</g>
<path d="M537 978.789C784.424 978.789 985 778.26 985 530.894C985 283.529 784.424 83 537 83C289.576 83 89 283.529 89 530.894C89 778.26 289.576 978.789 537 978.789Z" fill="#D6D1FF"/>
<path d="M537 978.789C784.424 978.789 985 778.26 985 530.894C985 283.529 784.424 83 537 83C289.576 83 89 283.529 89 530.894C89 778.26 289.576 978.789 537 978.789Z" stroke="white" stroke-width="20" stroke-miterlimit="10"/>
</g>
<defs>
<clipPath id="clip0_553_340">
<rect width="1074" height="1061" fill="white"/>
</clipPath>
</defs>
</svg>
