<svg width="102" height="278" viewBox="0 0 102 278" fill="none" xmlns="http://www.w3.org/2000/svg">
<path d="M44.1479 21.3027H57.0951C60.2789 21.3027 62.8613 23.8845 62.8613 27.0675V63.1651H38.3936V27.0675C38.3936 23.8845 40.9759 21.3027 44.1597 21.3027H44.1479Z" fill="#50309E"/>
<path d="M38.3704 174.228H29.6328C14.74 174.228 2.62988 162.121 2.62988 147.231V55.3486H38.3704V174.228ZM9.63414 62.3512V147.231C9.63414 158.254 18.6076 167.225 29.6328 167.225H31.3662V62.3512H9.63414Z" fill="#50309E"/>
<path d="M71.6116 174.228H62.874V55.3486H98.6146V147.231C98.6146 162.109 86.5045 174.228 71.6116 174.228ZM69.8783 167.225H71.6116C82.6368 167.225 91.6103 158.254 91.6103 147.231V62.3512H69.8783V167.225Z" fill="#50309E"/>
<path d="M76.8345 0V35.7203H24.397V0C9.7753 8.87703 0 24.9453 0 43.2888C0 71.2403 22.6636 93.8867 50.6098 93.8867C78.5561 93.8867 101.22 71.2285 101.22 43.2888C101.22 24.9335 91.4444 8.86524 76.8227 0H76.8345Z" fill="#3E266D"/>
<path d="M45.6333 85.0806H24.3965V231.923H45.6333V85.0806Z" fill="#50309E"/>
<path d="M76.8344 85.0806H55.5977V231.923H76.8344V85.0806Z" fill="#50309E"/>
<path d="M50.6216 277.31C75.6941 277.31 96.0195 256.99 96.0195 231.923C96.0195 206.856 75.6941 186.536 50.6216 186.536C25.549 186.536 5.22363 206.856 5.22363 231.923C5.22363 256.99 25.549 277.31 50.6216 277.31Z" fill="#3E266D"/>
<path d="M50.622 264.437C68.5831 264.437 83.1435 249.88 83.1435 231.923C83.1435 213.966 68.5831 199.409 50.622 199.409C32.6609 199.409 18.1006 213.966 18.1006 231.923C18.1006 249.88 32.6609 264.437 50.622 264.437Z" fill="#50309E"/>
<path d="M50.622 122.003C68.0621 122.003 82.2001 107.868 82.2001 90.4325C82.2001 72.9965 68.0621 58.8618 50.622 58.8618C33.1819 58.8618 19.0439 72.9965 19.0439 90.4325C19.0439 107.868 33.1819 122.003 50.622 122.003Z" fill="#3E266D"/>
<path d="M50.6223 113.043C63.113 113.043 73.2387 102.92 73.2387 90.4324C73.2387 77.9446 63.113 67.8213 50.6223 67.8213C38.1316 67.8213 28.0059 77.9446 28.0059 90.4324C28.0059 102.92 38.1316 113.043 50.6223 113.043Z" fill="#50309E"/>
<path d="M62.8495 134.075H38.3818V142.87H62.8495V134.075Z" fill="#50309E"/>
</svg>
