<svg width="102" height="269" viewBox="0 0 102 269" fill="none" xmlns="http://www.w3.org/2000/svg">
<path d="M44.1479 21.3027H57.0951C60.2789 21.3027 62.8613 23.8845 62.8613 27.0675V63.1651H38.3936V27.0675C38.3936 23.8845 40.9759 21.3027 44.1597 21.3027H44.1479Z" fill="#50309E"/>
<path d="M38.3704 174.228H29.6328C14.74 174.228 2.62988 162.121 2.62988 147.231V55.3486H38.3704V174.228ZM9.63414 62.3512V147.231C9.63414 158.254 18.6076 167.225 29.6328 167.225H31.3662V62.3512H9.63414Z" fill="#50309E"/>
<path d="M71.6116 174.228H62.874V55.3486H98.6146V147.231C98.6146 162.109 86.5045 174.228 71.6116 174.228ZM69.8783 167.225H71.6116C82.6368 167.225 91.6103 158.254 91.6103 147.231V62.3512H69.8783V167.225Z" fill="#50309E"/>
<path d="M76.8345 0V35.7203H24.397V0C9.7753 8.87703 0 24.9453 0 43.2888C0 71.2403 22.6636 93.8867 50.6098 93.8867C78.5561 93.8867 101.22 71.2285 101.22 43.2888C101.22 24.9335 91.4444 8.86524 76.8227 0H76.8345Z" fill="#3E266D"/>
<path d="M51.3979 188.774C76.4705 188.774 96.7958 168.454 96.7958 143.387C96.7958 118.321 76.4705 98 51.3979 98C26.3253 98 6 118.321 6 143.387C6 168.454 26.3253 188.774 51.3979 188.774Z" fill="#3E266D"/>
<path d="M51.3984 175.028C69.3595 175.028 83.9198 160.471 83.9198 142.514C83.9198 124.557 69.3595 110 51.3984 110C33.4373 110 18.877 124.557 18.877 142.514C18.877 160.471 33.4373 175.028 51.3984 175.028Z" fill="#50309E"/>
<path d="M62.8495 134.075H38.3818V142.87H62.8495V134.075Z" fill="#50309E"/>
</svg>
