<svg width="153" height="153" viewBox="0 0 153 153" fill="none" xmlns="http://www.w3.org/2000/svg">
<path d="M76.1977 152.36C118.281 152.36 152.395 118.253 152.395 76.1798C152.395 34.1069 118.281 0 76.1977 0C34.1149 0 0 34.1069 0 76.1798C0 118.253 34.1149 152.36 76.1977 152.36Z" fill="white"/>
<path d="M113.949 102.75V87.1707H102.442C102.442 89.4655 102.442 91.8056 102.442 94.1457C102.442 94.8439 102.451 95.542 102.442 96.2402C102.406 98.0567 101.837 98.6578 100.045 98.6675C95.6849 98.6869 91.3245 98.674 86.964 98.674C76.3812 98.674 65.8016 98.674 55.2189 98.674C52.8067 98.674 52.3556 98.2086 52.3524 95.7489C52.3492 94.2039 52.3524 92.6557 52.3524 91.0234H40.8803V102.74C41.2961 102.895 41.776 103.083 42.2591 103.26C46.3444 104.767 49.1277 109.492 48.3759 113.655C47.4705 118.678 43.5483 122.153 38.7976 122.14C34.2196 122.13 30.1951 118.707 29.3313 114.098C28.4899 109.605 31.0301 104.818 35.2689 103.361C36.6862 102.873 36.9549 102.194 36.9229 100.843C36.8333 97.1387 36.8813 93.4282 36.8973 89.7209C36.9069 87.5779 37.4284 87.064 39.5462 87.0576C43.7403 87.0479 47.9344 87.0576 52.2404 87.0576V59.6745C48.1199 59.6745 44.041 59.6745 39.9621 59.6745C37.294 59.6745 36.8941 59.2802 36.8909 56.6201C36.8845 52.4312 36.8909 48.2423 36.8909 44.1439C35.6432 43.5266 34.4308 43.0773 33.3846 42.3792C29.6064 39.8548 28.2212 35.0971 29.8944 30.7175C31.4012 26.771 35.7456 24.1206 39.8149 24.6604C44.5209 25.2874 47.9536 28.8396 48.4654 33.6135C48.9069 37.7604 46.1269 42.1206 42.0351 43.504C41.0466 43.8369 40.7363 44.2797 40.7555 45.3075C40.8227 48.5849 40.7875 51.8624 40.7971 55.1398C40.7971 55.2917 40.8579 55.4469 40.9282 55.7927H52.3524C52.3524 53.9374 52.3332 52.1824 52.3588 50.4305C52.3812 48.6981 52.9698 48.0613 54.6462 48.0613C69.8006 48.0484 84.955 48.0484 100.109 48.0613C101.91 48.0613 102.442 48.6916 102.445 50.7085C102.451 60.864 102.445 71.0195 102.445 81.175V83.0432H113.895V44.0825C112.807 43.5363 111.61 43.0805 110.567 42.3856C106.802 39.8775 105.391 35.0906 107.042 30.7207C108.517 26.8195 112.932 24.1238 116.969 24.6539C121.688 25.2745 125.124 28.8234 125.619 33.5909C126.058 37.7733 123.297 42.14 119.215 43.4846C118.133 43.8401 117.877 44.3411 117.881 45.4109C117.913 64.0574 117.913 82.7038 117.874 101.347C117.874 102.469 118.229 102.892 119.256 103.235C123.364 104.608 126.131 109.101 125.591 113.322C124.983 118.093 121.483 121.568 116.764 122.085C112.57 122.544 108.229 119.651 106.879 115.491C105.186 110.287 107.775 104.954 112.864 103.154C113.21 103.031 113.552 102.895 113.946 102.743L113.949 102.75ZM56.2874 51.9917V94.6758H98.5258V51.9917H56.2874ZM116.006 106.47C112.935 106.451 110.203 109.162 110.155 112.285C110.107 115.41 112.746 118.148 115.868 118.216C119.052 118.287 121.784 115.572 121.78 112.343C121.774 109.195 119.119 106.493 116.009 106.47H116.006ZM121.777 34.3925C121.79 31.2249 119.18 28.5487 116.038 28.5067C112.871 28.4646 110.113 31.2378 110.151 34.4248C110.19 37.5406 112.919 40.2653 115.99 40.2556C119.09 40.2459 121.764 37.5374 121.777 34.3925ZM44.6265 112.401C44.6584 109.301 41.984 106.535 38.8904 106.47C35.8032 106.405 33.0839 109.065 33.0039 112.223C32.924 115.439 35.6017 118.209 38.7944 118.216C41.9008 118.222 44.5913 115.536 44.6265 112.398V112.401ZM44.6265 34.3278C44.5977 31.1861 41.9168 28.5034 38.804 28.5034C35.608 28.5034 32.9272 31.2702 33.0039 34.4862C33.0775 37.6408 35.7968 40.3073 38.8808 40.2524C41.9648 40.1974 44.6553 37.4242 44.6265 34.3278Z" fill="black"/>
<path d="M90.9408 73.5277C90.9408 77.1219 90.9504 80.7193 90.9376 84.3135C90.928 86.2916 90.1986 87.0447 88.26 87.0479C80.9851 87.0609 73.7102 87.0609 66.4353 87.0479C64.599 87.0447 63.8536 86.269 63.8504 84.3846C63.8376 77.0346 63.8376 69.6814 63.8504 62.3315C63.8536 60.4471 64.599 59.6843 66.4481 59.6811C73.723 59.6682 80.9979 59.6682 88.2727 59.6811C90.205 59.6811 90.9312 60.4406 90.9408 62.4252C90.9536 66.1293 90.944 69.8301 90.944 73.5342L90.9408 73.5277ZM67.7886 63.6567V83.0659H86.9931V63.6567H67.7886Z" fill="black"/>
</svg>
