<svg width="153" height="153" viewBox="0 0 153 153" fill="none" xmlns="http://www.w3.org/2000/svg">
<path d="M76.1977 152.36C118.281 152.36 152.395 118.253 152.395 76.1798C152.395 34.1069 118.281 0 76.1977 0C34.1149 0 0 34.1069 0 76.1798C0 118.253 34.1149 152.36 76.1977 152.36Z" fill="white"/>
<path d="M31.964 74.2189C31.8107 74.2189 31.5512 73.8299 31.5512 73.6059C31.5159 72.2619 31.5277 70.9062 31.5277 69.5623C31.5277 68.7135 31.1975 68.0297 30.4546 67.5818C28.8392 66.6269 27.0115 67.7586 27.0115 69.7627C26.9879 74.5962 27.0115 79.4296 27.0115 84.263C27.0115 85.7249 27.9548 86.6915 29.2872 86.6915C30.6197 86.6915 31.5277 85.7131 31.5277 84.2395C31.5277 82.6598 31.5512 81.08 31.5277 79.5003C31.5159 78.9344 31.6927 78.7576 32.2705 78.7576C34.3341 78.7812 53.3976 78.8048 55.4612 78.7576C56.0507 78.7459 56.3809 78.8519 56.5578 79.241C56.2748 77.6023 56.0861 75.9283 56.0272 74.2307C53.6217 74.2307 34.2987 74.2307 31.9875 74.2071L31.964 74.2189Z" fill="black"/>
<path d="M41.2553 85.7602C41.1138 85.383 40.9959 84.9939 40.8662 84.6167C40.9841 85.0057 41.1256 85.383 41.2553 85.7602Z" fill="black"/>
<path d="M113.809 84.9351C113.774 85.0412 113.739 85.159 113.691 85.2651C113.727 85.159 113.774 85.0412 113.809 84.9351Z" fill="black"/>
<path d="M114.307 61.8054C118.116 61.8054 121.804 59.1293 121.804 55.3332C121.804 51.6669 121.828 48.0006 121.792 44.3342C121.792 43.674 121.957 43.3793 122.594 43.1318C126.261 41.6935 128.278 37.8857 127.511 33.9011C126.816 30.2465 123.431 27.4761 119.658 27.4408C115.661 27.4054 112.229 30.1758 111.498 34.0189C110.755 37.9446 112.89 41.7525 116.639 43.2025C117.017 43.344 117.276 43.4619 117.264 43.9806C117.241 47.8238 117.264 51.6669 117.241 55.5101C117.241 56.5475 115.557 57.2195 114.507 57.2313C113.647 57.2431 87.7741 57.2077 86.9133 57.2431C86.7718 57.2431 86.6657 57.2313 86.5596 57.1959C87.2199 58.6813 87.7859 60.2139 88.2458 61.7936C88.6349 61.7936 113.977 61.7936 114.295 61.7936L114.307 61.8054ZM115.908 35.5397C115.92 33.5828 117.571 31.9795 119.54 31.9795C121.545 31.9795 123.184 33.6417 123.16 35.634C123.137 37.5792 121.486 39.1943 119.517 39.1943C117.512 39.1943 115.885 37.5438 115.908 35.5279V35.5397Z" fill="black"/>
<path d="M114.308 89.4236C118.117 89.4236 121.805 92.0997 121.805 95.8958C121.805 99.5621 121.829 103.228 121.793 106.895C121.793 107.555 121.958 107.85 122.595 108.097C126.262 109.535 128.279 113.343 127.512 117.328C126.817 120.983 123.432 123.753 119.659 123.788C115.662 123.824 112.23 121.053 111.499 117.21C110.756 113.284 112.891 109.477 116.64 108.026C117.018 107.885 117.277 107.767 117.265 107.248C117.242 103.405 117.265 99.5621 117.242 95.7189C117.242 94.6815 115.558 94.0095 114.508 93.9977C113.648 93.9859 87.7751 94.0213 86.9143 93.9859C86.7728 93.9859 86.6667 93.9977 86.5605 94.0331C87.2209 92.5477 87.7869 91.0151 88.2467 89.4354C88.6359 89.4354 113.978 89.4354 114.296 89.4354L114.308 89.4236ZM115.909 115.689C115.921 117.646 117.572 119.25 119.541 119.25C121.546 119.25 123.185 117.587 123.161 115.595C123.138 113.65 121.487 112.035 119.518 112.035C117.513 112.035 115.886 113.685 115.909 115.701V115.689Z" fill="black"/>
<path d="M38.3659 61.7888C34.5572 61.7888 30.8687 59.1127 30.8687 55.3166C30.8687 51.6503 30.8451 47.984 30.8805 44.3176C30.8805 43.6574 30.7154 43.3627 30.0787 43.1152C26.4115 41.6769 24.3951 37.8691 25.1615 33.8845C25.8573 30.2299 29.2415 27.4595 33.0148 27.4242C37.0122 27.3888 40.4436 30.1592 41.1747 34.0023C41.9175 37.928 39.7832 41.7359 36.0335 43.1859C35.6561 43.3274 35.3967 43.4453 35.4085 43.964C35.4321 47.8072 35.4085 51.6503 35.4321 55.4935C35.4321 56.5309 37.116 57.2029 38.1655 57.2147C39.0263 57.2265 64.8988 57.1911 65.7595 57.2265C65.901 57.2265 66.0072 57.2147 66.1133 57.1793C65.4529 58.6647 64.887 60.1973 64.4271 61.777C64.038 61.777 38.6961 61.777 38.3777 61.777L38.3659 61.7888ZM36.7645 35.5231C36.7528 33.5662 35.1019 31.9629 33.1327 31.9629C31.1281 31.9629 29.4891 33.6251 29.5127 35.6174C29.5363 37.5626 31.1871 39.1777 33.1563 39.1777C35.1609 39.1777 36.7881 37.5272 36.7645 35.5113V35.5231Z" fill="black"/>
<path d="M38.3669 89.4402C34.5582 89.4402 30.8697 92.1163 30.8697 95.9124C30.8697 99.5787 30.8461 103.245 30.8815 106.911C30.8815 107.572 30.7164 107.866 30.0797 108.114C26.4125 109.552 24.3961 113.36 25.1625 117.345C25.8582 120.999 29.2425 123.769 33.0158 123.805C37.0132 123.84 40.4445 121.07 41.1756 117.227C41.9185 113.301 39.7842 109.493 36.0344 108.043C35.6571 107.902 35.3977 107.784 35.4095 107.265C35.4331 103.422 35.4095 99.5787 35.4331 95.7355C35.4331 94.6981 37.117 94.0261 38.1664 94.0143C39.0272 94.0025 64.8997 94.0379 65.7605 94.0025C65.902 94.0025 66.0081 94.0143 66.1143 94.0497C65.4539 92.5643 64.8879 91.0317 64.4281 89.452C64.0389 89.452 38.6971 89.452 38.3787 89.452L38.3669 89.4402ZM36.7655 115.706C36.7537 117.663 35.1029 119.266 33.1337 119.266C31.1291 119.266 29.4901 117.604 29.5137 115.612C29.5372 113.666 31.1881 112.051 33.1573 112.051C35.1619 112.051 36.7891 113.702 36.7655 115.718V115.706Z" fill="black"/>
<path d="M123.278 84.2397C123.278 84.6405 123.337 85.0649 123.49 85.4303C123.903 86.4088 124.964 86.904 126.013 86.68C127.087 86.456 127.77 85.56 127.782 84.3222C127.794 79.5123 127.806 74.7024 127.806 69.8926C127.806 69.6922 127.806 69.48 127.782 69.2796C127.629 68.0653 126.697 67.2755 125.471 67.2872C124.268 67.3108 123.36 68.1714 123.278 69.3975C123.242 69.8572 123.278 70.317 123.278 70.7767C123.278 71.9203 123.278 73.052 123.278 74.2191H97.8019C97.7429 75.8578 97.5661 77.461 97.3066 79.029C97.4481 78.8286 97.6604 78.7932 97.967 78.7932C100.184 78.7932 120.401 78.7932 122.606 78.7932C122.806 78.7932 122.995 78.8286 123.278 78.8639C123.278 79.1822 123.278 79.4534 123.278 79.7245C123.278 81.2217 123.266 82.7307 123.278 84.2279V84.2397Z" fill="black"/>
<circle cx="77.001" cy="77.4238" r="21" fill="white" stroke="black" stroke-width="4"/>
</svg>
