<svg width="153" height="153" viewBox="0 0 153 153" fill="none" xmlns="http://www.w3.org/2000/svg">
<path d="M76.1977 152.36C118.281 152.36 152.395 118.253 152.395 76.1798C152.395 34.1069 118.281 0 76.1977 0C34.1149 0 0 34.1069 0 76.1798C0 118.253 34.1149 152.36 76.1977 152.36Z" fill="white"/>
<path d="M30.7974 102.763C30.7974 105.451 30.7738 107.903 30.7974 110.367C30.8917 117.252 36.2216 122.722 43.0725 122.746C64.9461 122.804 86.8196 122.793 108.693 122.722C110.309 122.722 112.042 122.368 113.516 121.696C118.362 119.492 120.886 115.625 121.004 110.261C121.051 107.809 121.004 105.357 121.004 102.752C123.727 102.752 126.239 102.811 128.739 102.74C132.76 102.634 136.003 99.4979 136.038 95.525C136.109 87.8151 136.109 80.1052 136.038 72.3953C136.014 69.4245 134.493 67.1727 131.793 65.9467C130.602 65.4044 129.175 65.2512 127.843 65.1805C125.602 65.0626 123.35 65.1451 120.992 65.1451C120.992 64.4024 120.992 63.8955 120.992 63.4003C120.992 61.6909 120.992 59.9698 120.992 58.2604C120.968 50.4326 115.756 45.1158 107.95 45.0804C98.7291 45.0333 89.5081 45.0804 80.287 45.0804C79.7092 45.0804 79.1314 45.0804 78.4121 45.0804C78.4121 41.9799 78.4475 39.1152 78.3886 36.2505C78.365 35.2248 78.6126 34.7061 79.6738 34.27C84.6853 32.2069 87.079 26.8783 85.381 21.8445C83.6948 16.8696 78.5537 14.0638 73.4479 15.337C69.368 16.3508 66.2078 20.0526 65.9012 24.1787C65.571 28.6702 68.0237 32.5842 72.2215 34.3879C72.6578 34.5765 73.3181 35.0009 73.3299 35.331C73.4125 38.5376 73.3771 41.7441 73.3771 45.0921C72.5753 45.0921 71.9857 45.0921 71.3843 45.0921C62.4109 45.0921 53.4374 45.2454 44.4757 45.045C35.856 44.8564 30.2904 51.4228 30.7738 58.7084C30.9153 60.795 30.7974 62.9052 30.7974 65.1687C28.2622 65.1687 25.9039 65.1451 23.5455 65.1687C18.9114 65.2276 15.7512 68.3634 15.7276 72.9611C15.7041 80.2702 15.7041 87.5676 15.7276 94.8767C15.7394 99.5451 18.9467 102.716 23.6398 102.752C25.951 102.763 28.2622 102.752 30.7974 102.752V102.763Z" fill="white"/>
<path d="M30.7974 102.763C28.2622 102.763 25.951 102.775 23.6398 102.763C18.9467 102.728 15.7394 99.5568 15.7276 94.8884C15.7041 87.5793 15.7041 80.2819 15.7276 72.9728C15.7394 68.3634 18.9114 65.2393 23.5455 65.1804C25.9039 65.145 28.2622 65.1804 30.7974 65.1804C30.7974 62.9169 30.9153 60.8066 30.7738 58.72C30.2904 51.4345 35.8678 44.8681 44.4757 45.0567C53.4374 45.2454 62.4227 45.1039 71.3843 45.1039C71.9857 45.1039 72.5753 45.1039 73.3771 45.1039C73.3771 41.7558 73.4125 38.5493 73.3299 35.3427C73.3299 35.0126 72.6578 34.5882 72.2215 34.3995C68.0237 32.6076 65.571 28.682 65.9012 24.1904C66.2078 20.0761 69.368 16.3626 73.4479 15.3487C78.5537 14.0755 83.7066 16.8813 85.381 21.8562C87.079 26.8901 84.6971 32.2186 79.6738 34.2817C78.6126 34.7179 78.3768 35.2366 78.3886 36.2622C78.4475 39.1269 78.4121 41.9916 78.4121 45.0921C79.1314 45.0921 79.7092 45.0921 80.287 45.0921C89.5081 45.0921 98.7291 45.0567 107.95 45.0921C115.756 45.1274 120.968 50.4442 120.992 58.272C120.992 59.9814 120.992 61.7027 120.992 63.412C120.992 63.9072 120.992 64.4141 120.992 65.1568C123.338 65.1568 125.591 65.0743 127.843 65.1922C129.175 65.2629 130.59 65.4161 131.793 65.9584C134.493 67.1727 136.014 69.4362 136.038 72.407C136.109 80.1169 136.121 87.8268 136.038 95.5368C136.003 99.5096 132.76 102.645 128.739 102.752C126.227 102.822 123.716 102.763 121.004 102.763C121.004 105.369 121.051 107.821 121.004 110.273C120.897 115.637 118.362 119.504 113.516 121.708C112.054 122.38 110.309 122.734 108.693 122.734C86.8196 122.804 64.9461 122.816 43.0725 122.757C36.2216 122.734 30.8917 117.264 30.7974 110.379C30.762 107.915 30.7974 105.463 30.7974 102.775V102.763ZM76.042 50.1259C65.4059 50.1259 54.7816 50.1259 44.1455 50.1259C38.8393 50.1259 35.7971 53.1439 35.7853 58.4725C35.7735 75.4485 35.7735 92.4245 35.7853 109.401C35.7853 114.776 38.8747 117.818 44.2635 117.818C65.3706 117.818 86.4894 117.818 107.596 117.818C112.95 117.818 116.039 114.729 116.039 109.365C116.039 92.4363 116.039 75.5074 116.039 58.5904C116.039 53.1793 113.009 50.1377 107.632 50.1377C97.1019 50.1377 86.5719 50.1377 76.042 50.1377V50.1259ZM121.11 70.2025V97.6941C123.409 97.6941 125.626 97.6941 127.831 97.6941C130.272 97.6823 131.05 96.8925 131.062 94.405C131.074 91.281 131.062 88.1687 131.062 85.0446C131.062 81.1189 131.074 77.1932 131.062 73.2793C131.062 71.4049 130.343 70.3085 128.833 70.2378C126.286 70.1081 123.739 70.2025 121.122 70.2025H121.11ZM30.7031 70.1553C28.3094 70.1553 26.0099 70.1317 23.7106 70.1553C21.6588 70.1906 20.8098 71.063 20.7981 73.1497C20.7745 75.7668 20.7981 78.3839 20.7981 81.001C20.7981 85.5751 20.7981 90.161 20.7981 94.7351C20.7981 96.4917 21.4583 97.5409 22.8262 97.5998C25.4203 97.7177 28.0263 97.6351 30.7148 97.6351V70.1553H30.7031ZM70.9244 25.1217C70.9598 27.8803 73.2356 30.0967 75.9712 30.0495C78.7187 30.0023 80.9238 27.727 80.8766 24.9802C80.8412 22.198 78.6244 20.0525 75.8179 20.0997C73.0115 20.135 70.8773 22.3277 70.9126 25.1335L70.9244 25.1217Z" fill="black"/>
<path d="M76.0422 50.1261C86.5722 50.1261 97.1022 50.1261 107.632 50.1261C113.009 50.1261 116.04 53.1676 116.04 58.5787C116.04 75.5075 116.04 92.4364 116.04 109.353C116.04 114.717 112.95 117.806 107.597 117.806C86.4896 117.806 65.3708 117.806 44.2637 117.806C38.8749 117.806 35.7973 114.765 35.7855 109.389C35.7855 92.4128 35.7737 75.4368 35.7855 58.4608C35.7855 53.144 38.8395 50.126 44.1458 50.1143C54.7818 50.1143 65.4061 50.1143 76.0422 50.1143V50.1261ZM91.0058 80.1759C95.1329 80.1523 98.4818 76.7925 98.4818 72.6664C98.4818 68.5403 95.133 65.1923 90.9823 65.1805C86.7491 65.1687 83.412 68.5285 83.4474 72.7725C83.4828 76.9104 86.8434 80.2113 91.0058 80.1877V80.1759ZM60.8428 80.1759C64.9935 80.1877 68.354 76.875 68.3776 72.7371C68.4012 68.5167 65.0406 65.1569 60.8192 65.1687C56.6685 65.1923 53.3551 68.5167 53.3551 72.6782C53.3551 76.8161 56.6921 80.1641 60.831 80.1759H60.8428ZM75.9007 102.763C80.5584 102.763 84.9921 101.726 89.1781 99.6865C90.7936 98.8967 91.3596 97.5056 90.6757 96.1145C90.0507 94.8177 88.6475 94.4169 87.0321 95.1596C79.6269 98.5784 72.2453 98.5784 64.8401 95.1596C63.1421 94.3816 61.7154 94.8296 61.114 96.2089C60.5008 97.6117 61.1022 98.9085 62.7649 99.7219C66.9155 101.726 71.2902 102.752 75.9007 102.763Z" fill="#D6D1FF"/>
<path d="M121.109 70.2026C123.727 70.2026 126.286 70.1082 128.821 70.2379C130.342 70.3086 131.038 71.405 131.05 73.2795C131.073 77.2052 131.05 81.1308 131.05 85.0447C131.05 88.1688 131.062 91.2811 131.05 94.4051C131.038 96.8926 130.26 97.6706 127.819 97.6942C125.614 97.706 123.409 97.6942 121.098 97.6942V70.2026H121.109Z" fill="#998CFF"/>
<path d="M30.715 70.1671V97.647C28.0265 97.647 25.4205 97.7295 22.8263 97.6117C21.4585 97.5527 20.81 96.4916 20.7982 94.7469C20.7864 90.1728 20.7982 85.587 20.7982 81.0129C20.7982 78.3957 20.7864 75.7786 20.7982 73.1614C20.8218 71.0748 21.6708 70.2025 23.7107 70.1671C26.0101 70.1317 28.3095 70.1671 30.7032 70.1671H30.715Z" fill="#998CFF"/>
<path d="M70.936 25.1334C70.9006 22.3276 73.0349 20.1349 75.8413 20.0996C78.6477 20.0642 80.8527 22.1979 80.8999 24.9801C80.9353 27.7269 78.742 30.0022 75.9946 30.0494C73.2589 30.0965 70.9832 27.8802 70.9478 25.1216L70.936 25.1334Z" fill="white"/>
<path d="M90.959 75.1422C89.5676 75.1422 88.4709 74.0222 88.4945 72.6312C88.5181 71.2519 89.6737 70.1437 91.0298 70.179C92.3268 70.2144 93.4116 71.3108 93.4352 72.6194C93.4588 73.9869 92.3386 75.1304 90.959 75.1304V75.1422Z" fill="white"/>
<path d="M63.3543 72.6075C63.3897 73.9632 62.2576 75.1303 60.8898 75.1421C59.5927 75.1539 58.4489 74.0929 58.39 72.7961C58.3192 71.4521 59.4159 70.2379 60.7719 70.179C62.1161 70.12 63.3189 71.24 63.3543 72.5957V72.6075Z" fill="white"/>
<path d="M105.45 60.7598H46.3975V113.173H105.45V60.7598Z" fill="#D6D1FF"/>
<path d="M75.9239 94.7824C80.5344 94.7942 84.9092 95.7609 89.0598 97.6589C90.7225 98.4252 91.3238 99.6512 90.7106 100.983C90.1093 102.292 88.6825 102.716 86.9845 101.974C79.5793 98.7434 72.1977 98.7552 64.7926 101.974C63.1771 102.681 61.7739 102.292 61.1489 101.066C60.4768 99.7455 61.031 98.4252 62.6465 97.6825C66.8325 95.7491 71.2544 94.7706 75.9239 94.7588V94.7824Z" fill="black"/>
<path d="M58.6844 76.4623C55.8072 76.4623 53.0834 75.8493 50.501 74.6704C49.4633 74.1988 49.086 73.4207 49.4633 72.5955C49.8407 71.7821 50.7251 71.511 51.7863 71.9707C56.4087 73.9866 61.0074 73.9748 65.6179 71.9707C66.6202 71.5345 67.4928 71.7703 67.8937 72.5366C68.3182 73.3618 67.9645 74.187 66.9622 74.6468C64.3562 75.8492 61.597 76.4623 58.6844 76.4623Z" fill="black"/>
<path d="M93.1404 76.4623C90.2632 76.4623 87.5394 75.8493 84.957 74.6704C83.9193 74.1988 83.5421 73.4207 83.9194 72.5955C84.2967 71.7821 85.1811 71.511 86.2423 71.9707C90.8646 73.9866 95.4634 73.9748 100.074 71.9707C101.076 71.5345 101.949 71.7703 102.35 72.5366C102.774 73.3618 102.42 74.187 101.418 74.6468C98.8122 75.8492 96.0529 76.4623 93.1404 76.4623Z" fill="black"/>
</svg>
