<svg width="153" height="153" viewBox="0 0 153 153" fill="none" xmlns="http://www.w3.org/2000/svg">
<path d="M76.1977 152.36C118.281 152.36 152.395 118.253 152.395 76.1798C152.395 34.1069 118.281 0 76.1977 0C34.1149 0 0 34.1069 0 76.1798C0 118.253 34.1149 152.36 76.1977 152.36Z" fill="white"/>
<path d="M31.0835 101.278C31.0835 103.966 31.0599 106.418 31.0835 108.882C31.1778 115.767 36.5077 121.237 43.3587 121.26C65.2322 121.319 87.1057 121.307 108.979 121.237C110.595 121.237 112.328 120.883 113.802 120.211C118.648 118.006 121.172 114.14 121.29 108.776C121.337 106.324 121.29 103.872 121.29 101.266C124.014 101.266 126.525 101.325 129.025 101.254C133.046 101.148 136.289 98.0125 136.324 94.0397C136.395 86.3297 136.395 78.6198 136.324 70.9099C136.301 67.9391 134.779 65.6874 132.079 64.4613C130.888 63.9191 129.461 63.7658 128.129 63.6951C125.889 63.5772 123.636 63.6597 121.278 63.6597C121.278 62.917 121.278 62.4101 121.278 61.9149C121.278 60.2056 121.278 58.4844 121.278 56.775C121.254 48.9472 116.042 43.6304 108.236 43.595C99.0153 43.5479 89.7942 43.595 80.5732 43.595C79.9954 43.595 79.4175 43.595 78.6982 43.595C78.6982 40.4945 78.7337 37.6298 78.6747 34.7651C78.6511 33.7395 78.8987 33.2208 79.96 32.7846C84.9714 30.7215 87.3652 25.393 85.6672 20.3591C83.981 15.3842 78.8398 12.5784 73.734 13.8516C69.6541 14.8655 66.4939 18.5672 66.1873 22.6933C65.8571 27.1849 68.3098 31.0988 72.5076 32.9025C72.9439 33.0911 73.6043 33.5155 73.616 33.8456C73.6986 37.0522 73.6633 40.2588 73.6633 43.6068C72.8614 43.6068 72.2718 43.6068 71.6705 43.6068C62.697 43.6068 53.7235 43.7601 44.7619 43.5596C36.1422 43.371 30.5765 49.9374 31.06 57.223C31.2015 59.3096 31.0835 61.4198 31.0835 63.6833C28.5483 63.6833 26.19 63.6597 23.8317 63.6833C19.1975 63.7422 16.0374 66.8781 16.0138 71.4757C15.9902 78.7848 15.9902 86.0822 16.0138 93.3913C16.0256 98.0597 19.2329 101.231 23.9259 101.266C26.2371 101.278 28.5483 101.266 31.0835 101.266V101.278Z" fill="white"/>
<path d="M31.0835 101.278C28.5483 101.278 26.2371 101.29 23.9259 101.278C19.2329 101.243 16.0256 98.0714 16.0138 93.403C15.9902 86.0939 15.9902 78.7966 16.0138 71.4875C16.0256 66.878 19.1975 63.7539 23.8317 63.695C26.19 63.6596 28.5483 63.695 31.0835 63.695C31.0835 61.4315 31.2015 59.3213 31.06 57.2347C30.5765 49.9492 36.154 43.3827 44.7619 43.5714C53.7235 43.76 62.7088 43.6185 71.6705 43.6185C72.2718 43.6185 72.8614 43.6185 73.6633 43.6185C73.6633 40.2705 73.6986 37.0639 73.616 33.8573C73.616 33.5272 72.9439 33.1028 72.5076 32.9142C68.3098 31.1223 65.8571 27.1966 66.1873 22.705C66.4939 18.5907 69.6541 14.8772 73.734 13.8634C78.8398 12.5902 83.9927 15.3959 85.6672 20.3708C87.3652 25.4047 84.9832 30.7333 79.96 32.7963C78.8987 33.2325 78.6629 33.7512 78.6747 34.7769C78.7337 37.6416 78.6982 40.5063 78.6982 43.6067C79.4175 43.6067 79.9954 43.6067 80.5732 43.6067C89.7942 43.6067 99.0153 43.5714 108.236 43.6067C116.042 43.6421 121.254 48.9589 121.278 56.7867C121.278 58.4961 121.278 60.2173 121.278 61.9267C121.278 62.4218 121.278 62.9287 121.278 63.6714C123.624 63.6714 125.877 63.5889 128.129 63.7068C129.461 63.7775 130.876 63.9308 132.079 64.4731C134.779 65.6873 136.301 67.9508 136.324 70.9216C136.395 78.6315 136.407 86.3415 136.324 94.0514C136.289 98.0243 133.046 101.16 129.025 101.266C126.513 101.337 124.002 101.278 121.29 101.278C121.29 103.883 121.337 106.335 121.29 108.788C121.184 114.151 118.648 118.018 113.802 120.223C112.34 120.895 110.595 121.248 108.979 121.248C87.1057 121.319 65.2322 121.331 43.3587 121.272C36.5077 121.248 31.1778 115.778 31.0835 108.894C31.0481 106.43 31.0835 103.978 31.0835 101.29V101.278ZM76.3281 48.6406C65.692 48.6406 55.0678 48.6406 44.4317 48.6406C39.1254 48.6406 36.0832 51.6585 36.0714 56.9871C36.0596 73.9631 36.0596 90.9391 36.0714 107.915C36.0714 113.291 39.1608 116.332 44.5496 116.332C65.6567 116.332 86.7755 116.332 107.883 116.332C113.236 116.332 116.325 113.244 116.325 107.88C116.325 90.9509 116.325 74.0221 116.325 57.105C116.325 51.6939 113.295 48.6524 107.918 48.6524C97.3881 48.6524 86.8581 48.6524 76.3281 48.6524V48.6406ZM121.396 68.7171V96.2088C123.695 96.2088 125.912 96.2088 128.117 96.2088C130.558 96.197 131.336 95.4071 131.348 92.9197C131.36 89.7956 131.348 86.6833 131.348 83.5593C131.348 79.6336 131.36 75.7079 131.348 71.794C131.348 69.9195 130.629 68.8232 129.119 68.7524C126.572 68.6228 124.025 68.7171 121.408 68.7171H121.396ZM30.9892 68.6699C28.5955 68.6699 26.2961 68.6463 23.9967 68.6699C21.9449 68.7053 21.096 69.5777 21.0842 71.6643C21.0606 74.2814 21.0842 76.8986 21.0842 79.5157C21.0842 84.0898 21.0842 88.6757 21.0842 93.2498C21.0842 95.0063 21.7445 96.0555 23.1123 96.1145C25.7065 96.2323 28.3124 96.1498 31.0009 96.1498V68.6699H30.9892ZM71.2106 23.6364C71.2459 26.395 73.5217 28.6113 76.2574 28.5641C79.0048 28.517 81.2099 26.2417 81.1627 23.4949C81.1274 20.7127 78.9105 18.5671 76.1041 18.6143C73.2977 18.6497 71.1634 20.8424 71.1988 23.6481L71.2106 23.6364Z" fill="black"/>
<path d="M76.3283 48.6407C86.8583 48.6407 97.3883 48.6407 107.918 48.6407C113.295 48.6407 116.326 51.6822 116.326 57.0933C116.326 74.0222 116.326 90.951 116.326 107.868C116.326 113.232 113.236 116.321 107.883 116.321C86.7758 116.321 65.6569 116.321 44.5499 116.321C39.1611 116.321 36.0834 113.279 36.0716 107.903C36.0716 90.9274 36.0599 73.9514 36.0716 56.9754C36.0716 51.6587 39.1256 48.6407 44.4319 48.6289C55.068 48.6289 65.6923 48.6289 76.3283 48.6289V48.6407ZM91.292 78.6906C95.4191 78.667 98.7679 75.3072 98.7679 71.181C98.7679 67.0549 95.4191 63.7069 91.2684 63.6951C87.0352 63.6833 83.6982 67.0432 83.7335 71.2872C83.7689 75.4251 87.1295 78.7259 91.292 78.7024V78.6906ZM61.1289 78.6906C65.2796 78.7024 68.6402 75.3897 68.6638 71.2518C68.6873 67.0314 65.3267 63.6715 61.1053 63.6833C56.9547 63.7069 53.6412 67.0314 53.6412 71.1928C53.6412 75.3307 56.9783 78.6788 61.1171 78.6906H61.1289ZM76.1868 101.278C80.8446 101.278 85.2782 100.241 89.4643 98.2012C91.0797 97.4113 91.6458 96.0202 90.9618 94.6291C90.3369 93.3324 88.9336 92.9315 87.3182 93.6742C79.913 97.093 72.5314 97.093 65.1263 93.6742C63.4283 92.8962 62.0015 93.3442 61.4001 94.7235C60.787 96.1263 61.3884 97.4231 63.051 98.2365C67.2017 100.241 71.5763 101.266 76.1868 101.278Z" fill="#DCFFCC"/>
<path d="M121.396 68.7289C124.013 68.7289 126.572 68.6346 129.107 68.7643C130.628 68.835 131.324 69.9314 131.336 71.8058C131.36 75.7315 131.336 79.6572 131.336 83.5711C131.336 86.6952 131.348 89.8075 131.336 92.9315C131.324 95.419 130.546 96.197 128.105 96.2206C125.9 96.2324 123.695 96.2206 121.384 96.2206V68.7289H121.396Z" fill="#C4EAB0"/>
<path d="M31.0011 68.6817V96.1616C28.3126 96.1616 25.7066 96.2442 23.1125 96.1263C21.7446 96.0673 21.0961 95.0063 21.0843 93.2616C21.0726 88.6875 21.0843 84.1016 21.0843 79.5275C21.0843 76.9104 21.0726 74.2932 21.0843 71.6761C21.1079 69.5895 21.9569 68.7171 23.9968 68.6817C26.2962 68.6464 28.5957 68.6817 30.9894 68.6817H31.0011Z" fill="#C4EAB0"/>
<path d="M71.2221 23.6481C71.1867 20.8423 73.321 18.6496 76.1274 18.6142C78.9338 18.5788 81.1388 20.7126 81.186 23.4948C81.2214 26.2416 79.0282 28.5169 76.2807 28.564C73.545 28.6112 71.2693 26.3949 71.2339 23.6363L71.2221 23.6481Z" fill="white"/>
<path d="M91.2921 78.7021C87.1296 78.7257 83.7691 75.4248 83.7337 71.2869C83.6983 67.0547 87.0354 63.6831 91.2686 63.6949C95.4074 63.7066 98.7563 67.0547 98.7681 71.1808C98.7681 75.3069 95.431 78.6785 91.2921 78.6903V78.7021ZM91.245 73.6683C92.6128 73.6683 93.7448 72.5247 93.7212 71.1572C93.6976 69.8487 92.6246 68.7523 91.3157 68.7169C89.9597 68.6698 88.7923 69.7897 88.7805 71.169C88.7569 72.5601 89.8653 73.68 91.245 73.68V73.6683Z" fill="black"/>
<path d="M61.1283 78.6905C56.9894 78.6787 53.6523 75.3307 53.6523 71.1928C53.6523 67.0313 56.9658 63.7068 61.1165 63.6832C65.3379 63.6597 68.6985 67.0313 68.6749 71.2517C68.6513 75.3896 65.2907 78.7023 61.14 78.6905H61.1283ZM63.6399 71.122C63.6045 69.7663 62.4018 68.6346 61.0575 68.7053C59.7015 68.7642 58.5931 69.9785 58.6756 71.3224C58.7464 72.6074 59.8901 73.6802 61.1754 73.6684C62.5433 73.6566 63.6753 72.4895 63.6399 71.1338V71.122Z" fill="black"/>
<path d="M76.1747 100.865C71.5642 100.854 67.1895 99.887 63.0389 97.9889C61.3762 97.2227 60.7748 95.9966 61.388 94.6645C61.9894 93.3559 63.4162 92.9315 65.1142 93.6742C72.5194 96.9044 79.9009 96.8926 87.3061 93.6742C88.9215 92.9669 90.3248 93.3559 90.9497 94.582C91.6219 95.9023 91.0676 97.2227 89.4522 97.9654C85.2661 99.8987 80.8442 100.877 76.1747 100.889V100.865Z" fill="black"/>
<path d="M91.2451 73.6568C89.8537 73.6568 88.7571 72.5369 88.7806 71.1458C88.8042 69.7665 89.9598 68.6583 91.3159 68.6937C92.613 68.7291 93.6978 69.8254 93.7214 71.134C93.7449 72.5015 92.6248 73.645 91.2451 73.645V73.6568Z" fill="white"/>
<path d="M63.6404 71.1221C63.6758 72.4779 62.5438 73.645 61.1759 73.6568C59.8788 73.6685 58.7351 72.6075 58.6761 71.3108C58.6053 69.9668 59.702 68.7526 61.058 68.6936C62.4023 68.6347 63.605 69.7546 63.6404 71.1104V71.1221Z" fill="white"/>
</svg>
