<svg width="153" height="153" viewBox="0 0 153 153" fill="none" xmlns="http://www.w3.org/2000/svg">
<path d="M76.1977 152.36C118.281 152.36 152.396 118.253 152.396 76.1798C152.396 34.1069 118.281 0 76.1977 0C34.1149 0 0 34.1069 0 76.1798C0 118.253 34.1149 152.36 76.1977 152.36Z" fill="white"/>
<path d="M76.3015 106.639C95.3827 106.639 110.851 90.4883 110.851 70.5652C110.851 50.6421 95.3827 34.4912 76.3015 34.4912C57.2203 34.4912 41.752 50.6421 41.752 70.5652C41.752 90.4883 57.2203 106.639 76.3015 106.639Z" fill="#DCFFCC"/>
<path d="M30.8097 72.1095C30.6564 72.1095 30.3969 71.7205 30.3969 71.4965C30.3616 70.1526 30.3734 68.7968 30.3734 67.4529C30.3734 66.6041 30.0432 65.9204 29.3003 65.4724C27.6849 64.5175 25.8572 65.6492 25.8572 67.6533C25.8336 72.4868 25.8572 77.3202 25.8572 82.1537C25.8572 83.6155 26.8005 84.5822 28.1329 84.5822C29.4654 84.5822 30.3734 83.6037 30.3734 82.1301C30.3734 80.5504 30.3969 78.9706 30.3734 77.3909C30.3616 76.8251 30.5384 76.6483 31.1162 76.6483C33.1798 76.6718 35.2433 76.6954 37.3069 76.6483C37.8964 76.6365 38.2266 76.7425 38.4035 77.1316C38.1205 75.4929 37.9318 73.8189 37.8729 72.1213C35.4674 72.1213 33.1444 72.1213 30.8332 72.0977L30.8097 72.1095Z" fill="black"/>
<path d="M40.101 83.6508C39.9595 83.2736 39.8416 82.8846 39.7119 82.5073C39.8298 82.8964 39.9713 83.2736 40.101 83.6508Z" fill="black"/>
<path d="M40.2552 84.0518C40.7622 85.4194 41.3282 86.7633 42.0121 88.0719C42.696 89.3922 43.4507 90.689 44.2289 92.0918H43.4271C41.8706 92.0918 40.3141 92.1744 38.7694 92.0801C34.9135 91.8325 31.659 94.6854 31.8005 99.0591C31.9185 102.619 31.8123 106.18 31.8359 109.752C31.8359 110.294 31.6944 110.53 31.1638 110.73C27.5084 112.121 25.3623 115.941 26.0698 119.737C26.8009 123.662 30.1261 126.468 34.0881 126.468C38.0147 126.468 41.4343 123.674 42.1536 119.866C42.8847 115.976 40.7622 112.157 37.0478 110.73C36.5408 110.53 36.3639 110.294 36.3639 109.752C36.3875 106.038 36.3757 102.325 36.3875 98.5993C36.3875 97.3143 37.0242 96.6777 38.2977 96.6659C41.281 96.6659 44.2525 96.6424 47.2358 96.6777C47.6132 96.6777 48.0377 96.9135 48.3325 97.1611C48.9338 97.6798 49.5352 98.2103 50.1366 98.729C45.7972 94.6972 42.3777 89.6869 40.2552 84.04V84.0518ZM37.7435 118.275C37.7435 120.279 36.1281 121.918 34.1117 121.918C32.1543 121.918 30.5035 120.291 30.4799 118.346C30.4681 116.365 32.1307 114.703 34.1235 114.703C36.1045 114.703 37.7317 116.33 37.7435 118.287V118.275Z" fill="black"/>
<path d="M112.656 82.8257C112.621 82.9318 112.585 83.0497 112.538 83.1558C112.573 83.0497 112.621 82.9318 112.656 82.8257Z" fill="black"/>
<path d="M114.154 59.696C117.962 59.696 120.651 57.0199 120.651 53.2239C120.651 49.5575 120.674 45.8912 120.639 42.2249C120.639 41.5647 120.804 41.27 121.441 41.0224C125.108 39.5842 127.124 35.7763 126.358 31.7917C125.662 28.1371 122.278 25.3668 118.505 25.3314C114.507 25.296 111.076 28.0664 110.345 31.9096C109.602 35.8353 111.736 39.6431 115.486 41.0931C115.863 41.2346 116.123 41.3525 116.111 41.8712C116.087 45.7144 116.111 49.5576 116.088 53.4007C116.088 54.4382 115.404 55.1101 114.354 55.1219C113.493 55.1337 112.621 55.0983 111.76 55.1337C111.618 55.1337 111.512 55.1219 111.406 55.0865C112.067 56.5719 112.633 58.1045 113.092 59.6842C113.482 59.6842 113.823 59.6842 114.142 59.6842L114.154 59.696ZM114.755 33.4304C114.767 31.4734 116.418 29.8701 118.387 29.8701C120.391 29.8701 122.03 31.5323 122.007 33.5246C121.983 35.4698 120.332 37.0849 118.363 37.0849C116.359 37.0849 114.731 35.4345 114.755 33.4186V33.4304Z" fill="black"/>
<path d="M122.124 82.1303C122.124 82.5311 122.183 82.9555 122.337 83.3209C122.749 84.2994 123.811 84.7946 124.86 84.5706C125.933 84.3466 126.617 83.4507 126.629 82.2128C126.641 77.403 126.652 72.5931 126.652 67.7832C126.652 67.5828 126.653 67.3706 126.629 67.1702C126.476 65.9559 125.544 65.1661 124.318 65.1779C123.115 65.2014 122.207 66.062 122.124 67.2881C122.089 67.7479 122.124 68.2076 122.124 68.6674C122.124 69.8109 122.124 70.9426 122.124 72.1097H114.649C114.59 73.7484 114.413 75.3517 114.153 76.9196C114.295 76.7192 114.507 76.6838 114.814 76.6838C117.03 76.6838 119.247 76.6838 121.452 76.6838C121.653 76.6838 121.841 76.7192 122.124 76.7546C122.124 77.0729 122.124 77.344 122.124 77.6151C122.124 79.1123 122.113 80.6213 122.124 82.1185V82.1303Z" fill="black"/>
<path d="M102.22 98.8585C102.904 98.2572 103.564 97.656 104.248 97.0548C104.484 96.8426 104.861 96.6775 105.168 96.6775C108.175 96.6539 111.17 96.6539 114.176 96.6657C115.438 96.6657 116.087 97.3259 116.099 98.5991C116.099 102.336 116.099 106.085 116.11 109.822C116.11 110.317 115.957 110.518 115.509 110.694C112.537 111.862 110.769 114.043 110.273 117.19C109.625 121.305 112.42 125.325 116.476 126.256C120.697 127.223 124.919 124.806 126.169 120.703C127.407 116.66 125.308 112.251 121.381 110.765C120.756 110.529 120.615 110.211 120.615 109.61C120.65 105.92 120.65 102.23 120.638 98.5401C120.638 95.6872 119.141 93.4592 116.558 92.516C115.816 92.2449 114.978 92.1388 114.176 92.1152C112.231 92.0563 110.273 92.0916 108.233 92.0916C108.34 91.8794 108.387 91.7616 108.446 91.6672C110.002 89.2505 111.252 86.7159 112.219 84.0752C110.073 89.7692 106.618 94.8149 102.22 98.8585ZM118.339 114.703C120.32 114.679 121.994 116.353 121.983 118.334C121.959 120.314 120.367 121.918 118.386 121.929C116.37 121.941 114.754 120.326 114.754 118.298C114.754 116.33 116.358 114.715 118.351 114.691L118.339 114.703Z" fill="black"/>
<path d="M38.4037 55.1219C37.0241 55.1219 36.3991 54.4971 36.3991 53.1296C36.3991 49.4632 36.4109 45.7969 36.3874 42.1306C36.3874 41.5411 36.5406 41.2699 37.1184 41.0342C40.2314 39.761 41.9766 37.3914 42.2832 34.0787C42.6723 29.9055 39.689 26.1802 35.5148 25.4375C31.4584 24.7184 27.4611 27.2176 26.2937 31.214C25.1263 35.2223 27.2017 39.4898 31.1047 41.0106C31.7179 41.2464 31.8712 41.5529 31.8594 42.1659C31.8358 45.903 31.8358 49.6518 31.8594 53.3889C31.8712 56.5719 34.029 59.1065 37.1774 59.6017C37.8849 59.7078 38.6042 59.696 39.3942 59.7314C39.8659 58.1281 40.4437 56.5601 41.1158 55.0512C40.4083 55.393 39.3353 55.1219 38.4273 55.1219H38.4037ZM30.5033 33.5011C30.4915 31.5088 32.1306 29.8583 34.1351 29.8583C36.1161 29.8583 37.7434 31.4616 37.7552 33.4303C37.7552 35.4462 36.1279 37.0967 34.1351 37.0849C32.1659 37.0849 30.5151 35.4462 30.5033 33.5011Z" fill="black"/>
<path d="M112.55 83.1558C112.444 83.4623 112.326 83.7688 112.22 84.0871C112.338 83.7806 112.444 83.4741 112.55 83.1558Z" fill="black"/>
<path d="M102.22 98.8589C101.984 99.0593 101.76 99.2715 101.524 99.4719C101.76 99.2715 101.984 99.0711 102.22 98.8589Z" fill="black"/>
<path d="M51.987 100.344C51.3739 99.8018 50.7489 99.2713 50.1357 98.729C50.7371 99.2831 51.3503 99.8254 51.987 100.344Z" fill="black"/>
<path d="M66.3497 105.955C67.6468 105.944 68.5901 106.875 68.6491 108.243C70.3825 108.596 72.163 108.82 73.9671 108.926C73.9671 108.738 73.9671 108.549 73.9671 108.349C73.9789 106.934 74.9105 105.979 76.2075 105.955C77.5518 105.944 78.4833 106.899 78.5069 108.36C78.5069 108.549 78.5069 108.738 78.5069 108.915C80.311 108.808 82.0916 108.584 83.8249 108.231C83.8957 106.851 84.8155 105.944 86.1008 105.944C86.9851 105.944 87.6808 106.392 88.0464 107.123C89.9802 106.498 91.8433 105.72 93.6238 104.812C93.6238 104.116 93.6238 103.421 93.6238 102.714C93.612 100.851 94.3667 99.448 95.876 98.3752C99.3192 95.9349 102.267 92.9759 104.496 89.4039C111.441 78.2516 112.149 66.6395 106.005 55.0275C100.156 43.9577 90.5816 37.9926 78.1296 37.1909C67.0926 36.4836 57.8243 40.6568 50.6314 49.0269C43.6861 57.1141 41.1509 66.5924 43.0494 77.0727C44.653 85.9851 49.3697 93.0585 56.6923 98.387C58.1309 99.4363 58.8974 100.804 58.8974 102.596C58.8974 103.327 58.8974 104.069 58.8974 104.8C60.6779 105.708 62.541 106.486 64.4748 107.111C64.8404 106.392 65.5125 105.944 66.3851 105.932L66.3497 105.955ZM43.1673 70.5653C43.1673 52.3278 58.0012 37.4974 76.2429 37.4974C94.4846 37.4974 109.319 52.3278 109.319 70.5653C109.319 88.8027 94.4846 103.633 76.2429 103.633C58.0012 103.633 43.1673 88.8027 43.1673 70.5653Z" fill="black"/>
<path d="M112.655 82.8257C113.304 80.9159 113.799 78.9471 114.141 76.9194C114.082 77.002 114.035 77.1081 114.011 77.2613C113.693 79.1711 113.245 81.022 112.655 82.8257Z" fill="black"/>
<path d="M38.3799 77.1436C38.6983 78.9709 39.1463 80.7628 39.7123 82.4958C39.2171 80.9279 38.8162 79.3246 38.545 77.6859C38.5096 77.4501 38.4506 77.2851 38.3799 77.1318V77.1436Z" fill="black"/>
<path d="M42.6011 52.6817C48.3318 42.5787 56.7864 36.024 68.1536 33.4659C84.0606 29.882 100.699 37.1204 109.035 51.1138C109.707 52.2456 110.321 53.4244 110.91 54.6151C111.052 54.8863 111.205 55.0395 111.429 55.1102C105.462 41.6002 91.9492 32.1455 76.2545 32.1455C60.5598 32.1455 47.0819 41.5766 41.1035 55.0631C41.1271 55.0513 41.1625 55.0395 41.1861 55.0277C41.8818 54.6269 42.153 53.4952 42.6128 52.6817H42.6011Z" fill="black"/>
<path d="M114.578 72.1095H114.648C114.672 71.6026 114.684 71.0839 114.684 70.5652C114.684 66.7927 114.13 63.1499 113.104 59.6958C113.033 59.6958 112.986 59.6958 112.903 59.6958C114.165 63.763 114.637 67.8655 114.566 72.0977L114.578 72.1095Z" fill="black"/>
<path d="M39.5941 59.7432C39.5116 59.7432 39.4526 59.7432 39.3701 59.7432C38.356 63.1855 37.8018 66.8165 37.8018 70.5772C37.8018 71.1077 37.8253 71.6264 37.8371 72.1451H37.8961C37.8253 67.9129 38.3088 63.7868 39.5823 59.7432H39.5941Z" fill="black"/>
<path d="M114.578 72.1096C114.649 67.8774 114.177 63.7748 112.915 59.7077C112.986 59.7077 113.045 59.7077 113.116 59.7077C112.644 58.128 112.09 56.5954 111.43 55.11C111.206 55.0393 111.052 54.886 110.911 54.6149C110.321 53.436 109.72 52.2571 109.036 51.1136C100.699 37.1202 84.0611 29.8818 68.1542 33.4656C56.7988 36.0238 48.3324 42.5784 42.6016 52.6815C42.1418 53.4949 41.8706 54.6267 41.1749 55.0275C41.1513 55.0393 41.1159 55.0511 41.0923 55.0629C40.4202 56.5719 39.8542 58.1397 39.3707 59.743C39.4415 59.743 39.5122 59.743 39.5948 59.743C38.3095 63.7866 37.8378 67.901 37.9086 72.145H37.8496C37.9204 73.8426 38.0972 75.5166 38.3802 77.1552C38.451 77.2967 38.5099 77.4736 38.5453 77.7093C38.8165 79.348 39.2174 80.9513 39.7127 82.5192C39.8424 82.9082 39.9603 83.2855 40.1018 83.6627C40.149 83.7924 40.2079 83.9338 40.2551 84.0635C42.3776 89.7104 45.7854 94.7207 50.1365 98.7525C50.7497 99.2948 51.3746 99.8253 51.9878 100.368C54.0985 102.089 56.4097 103.598 58.8624 104.847C58.8624 104.116 58.8624 103.374 58.8624 102.643C58.8624 100.839 58.0959 99.4716 56.6573 98.4342C49.3347 93.1056 44.6298 86.0205 43.0143 77.1199C41.1277 66.6396 43.6511 57.1613 50.5964 49.0741C57.7893 40.704 67.0576 36.5307 78.0946 37.2381C90.5466 38.0279 100.121 44.0049 105.97 55.0746C112.102 66.6867 111.394 78.2988 104.461 89.4511C102.232 93.0349 99.2842 95.9821 95.841 98.4224C94.3317 99.4952 93.577 100.898 93.5888 102.761C93.5888 103.456 93.5888 104.152 93.5888 104.859C96.4542 103.397 99.1073 101.605 101.501 99.507C101.737 99.3066 101.961 99.0944 102.197 98.894C106.595 94.8504 110.05 89.8047 112.196 84.1107C112.314 83.8042 112.42 83.4977 112.526 83.1794C112.562 83.0733 112.597 82.9554 112.644 82.8493C113.234 81.0456 113.682 79.1947 114 77.2849C114.024 77.1317 114.071 77.0256 114.13 76.9431C114.389 75.3633 114.566 73.76 114.625 72.1332H114.554L114.578 72.1096Z" fill="black"/>
<path d="M86.0893 105.956C84.804 105.956 83.896 106.863 83.8135 108.243C85.2521 107.96 86.6553 107.582 88.0349 107.134C87.6694 106.404 86.9736 105.967 86.0893 105.956Z" fill="black"/>
<path d="M66.3497 105.956C65.4889 105.956 64.805 106.415 64.4395 107.135C65.8073 107.583 67.2105 107.948 68.6491 108.243C68.5901 106.887 67.6468 105.944 66.3497 105.956Z" fill="black"/>
<path d="M76.2072 105.956C74.9101 105.967 73.9904 106.934 73.9668 108.349C73.9668 108.537 73.9668 108.726 73.9668 108.926C74.7215 108.974 75.4761 108.997 76.2426 108.997C77.0091 108.997 77.7519 108.974 78.5066 108.926C78.5066 108.738 78.5066 108.549 78.5066 108.372C78.483 106.91 77.5515 105.944 76.2072 105.967V105.956Z" fill="black"/>
<path d="M96.5485 62.3014C96.3717 62.5136 96.183 62.714 95.9825 62.9026C89.2259 69.6105 82.4693 76.3066 75.7244 83.0145C74.0854 84.6414 72.3638 84.6649 70.6658 83.1088C67.1519 79.914 63.6498 76.7192 60.1359 73.5244C59.2279 72.6992 58.7209 71.7207 58.8624 70.4829C59.1571 68.019 61.9872 66.793 63.921 68.3491C65.2417 69.4101 66.4562 70.6126 67.7179 71.7561C69.3569 73.2415 70.9842 74.7387 72.6114 76.2476C72.7176 76.3419 72.8355 76.4363 73.0006 76.566C74.4745 75.0923 75.9013 73.6541 77.3281 72.2159C82.0212 67.5239 86.7143 62.8319 91.4074 58.1399C92.7162 56.8314 94.2138 56.5602 95.6288 57.3737C97.4093 58.3993 97.8456 60.7335 96.5249 62.325L96.5485 62.3014Z" fill="#59A564"/>
</svg>
