<svg width="153" height="153" viewBox="0 0 153 153" fill="none" xmlns="http://www.w3.org/2000/svg">
<path d="M76.1977 152.36C118.281 152.36 152.396 118.253 152.396 76.1798C152.396 34.1069 118.281 0 76.1977 0C34.1149 0 0 34.1069 0 76.1798C0 118.253 34.1149 152.36 76.1977 152.36Z" fill="white"/>
<path d="M93.2699 114.62C93.2935 114.208 93.3289 113.807 93.3289 113.406C93.3289 109.846 93.3525 106.286 93.3289 102.714C93.3171 100.851 94.0718 99.448 95.5811 98.3752C99.0243 95.9349 101.972 92.9759 104.201 89.4039C111.146 78.2516 111.854 66.6396 105.71 55.0275C99.8615 43.9577 90.2867 37.9926 77.8347 37.1909C66.7977 36.4836 57.5294 40.6568 50.3365 49.0269C43.3912 57.1141 40.856 66.5924 42.7544 77.0727C44.3581 85.9851 49.0748 93.0585 56.3974 98.387C57.836 99.4363 58.6024 100.804 58.6024 102.596C58.6024 104.399 58.6024 106.215 58.6024 108.019C58.6024 109.952 58.626 111.885 58.5906 113.819C58.5788 114.502 58.7911 114.703 59.4632 114.667C60.7131 114.62 61.963 114.667 63.2012 114.656C63.4134 114.656 63.6375 114.62 63.8969 114.597C63.8969 112.463 63.8969 110.412 63.8969 108.349C63.8969 106.922 64.793 105.944 66.0901 105.932C67.4226 105.92 68.3895 106.899 68.4013 108.325C68.4131 110.152 68.4013 111.991 68.4013 113.819C68.4013 114.09 68.4249 114.361 68.4485 114.62H73.6958C73.6958 114.29 73.6958 114.019 73.6958 113.748C73.6958 111.944 73.684 110.129 73.6958 108.325C73.7076 106.91 74.6391 105.956 75.9362 105.932C77.2805 105.92 78.2119 106.875 78.2355 108.337C78.2591 110.093 78.2355 111.85 78.2355 113.606C78.2355 113.925 78.2355 114.255 78.2355 114.62H83.471C83.4828 114.29 83.5182 113.996 83.5182 113.689C83.5182 111.909 83.5065 110.129 83.5182 108.349C83.5418 106.887 84.4734 105.92 85.8058 105.932C87.1383 105.932 88.0344 106.91 88.0462 108.396C88.058 110.2 88.0462 112.015 88.0462 113.819C88.0462 114.09 88.0698 114.361 88.0816 114.679C89.6735 114.679 91.171 114.679 92.6686 114.679C92.8455 114.679 93.0223 114.644 93.2699 114.62Z" fill="#998CFF"/>
<path d="M43.9575 92.0801C43.1792 90.6772 42.4246 89.3922 41.7406 88.0601C40.0426 84.7827 38.8753 81.3168 38.2739 77.6858C38.1324 76.837 37.8258 76.6248 37.0122 76.6484C34.9486 76.7074 32.8851 76.6838 30.8216 76.6484C30.2556 76.6484 30.0669 76.8135 30.0787 77.3911C30.114 78.9708 30.1023 80.5505 30.0787 82.1302C30.0787 83.6039 29.1589 84.5823 27.8382 84.5823C26.494 84.5823 25.5624 83.6156 25.5624 82.1538C25.5507 77.3204 25.5389 72.4869 25.5624 67.6535C25.5624 65.6494 27.3901 64.5058 29.0056 65.4725C29.7485 65.9205 30.0787 66.5925 30.0787 67.4531C30.0787 68.797 30.0669 70.1527 30.1023 71.4967C30.1023 71.7089 30.3735 72.0979 30.515 72.1097C32.8497 72.1451 35.1845 72.1333 37.6136 72.1333C37.5428 67.901 38.0263 63.775 39.2998 59.7432C38.4272 59.696 37.6371 59.7313 36.8589 59.6017C33.7105 59.1065 31.5526 56.5719 31.5408 53.3889C31.529 49.6518 31.5172 45.903 31.5408 42.1659C31.5408 41.5529 31.3993 41.2464 30.7861 41.0106C26.8831 39.4898 24.8078 35.2105 25.9752 31.214C27.1426 27.2176 31.1399 24.7184 35.1962 25.4375C39.3823 26.1802 42.3538 29.9055 41.9647 34.0787C41.6581 37.4032 39.9011 39.7727 36.7999 41.0342C36.2104 41.2699 36.0571 41.5411 36.0689 42.1306C36.0924 45.7969 36.0688 49.4632 36.0806 53.1296C36.0806 54.4971 36.7056 55.1219 38.0852 55.1219C39.0285 55.1219 40.1488 55.4284 40.8563 55.0158C41.552 54.615 41.8231 53.4833 42.283 52.6698C48.0138 42.5667 56.4684 36.0121 67.8356 33.4539C83.7426 29.8701 100.381 37.1085 108.717 51.1019C109.389 52.2336 110.003 53.4125 110.592 54.6032C110.793 55.004 111.017 55.1572 111.465 55.1455C112.326 55.1101 113.198 55.1455 114.059 55.1337C115.097 55.1219 115.781 54.4499 115.792 53.4125C115.792 49.5693 115.792 45.7261 115.816 41.883C115.816 41.3642 115.556 41.2581 115.191 41.1049C111.429 39.6549 109.295 35.8471 110.05 31.9214C110.781 28.0782 114.212 25.3078 118.21 25.3431C121.995 25.3667 125.367 28.1489 126.063 31.8035C126.829 35.7763 124.825 39.5959 121.146 41.0342C120.509 41.2817 120.344 41.5883 120.344 42.2366C120.379 45.903 120.367 49.5693 120.356 53.2357C120.356 57.0317 117.667 59.7078 113.858 59.7078C113.481 59.7078 113.104 59.7078 112.62 59.7078C113.882 63.775 114.354 67.8775 114.283 72.1097H121.83C121.83 70.9426 121.83 69.8108 121.83 68.6673C121.83 68.2076 121.806 67.7478 121.83 67.288C121.912 66.0738 122.82 65.2014 124.023 65.1778C125.249 65.1542 126.181 65.9559 126.334 67.1701C126.358 67.3706 126.358 67.571 126.358 67.7832C126.358 72.593 126.358 77.4029 126.334 82.2128C126.334 83.4506 125.638 84.3466 124.565 84.5706C123.516 84.7945 122.455 84.2994 122.042 83.3209C121.889 82.9555 121.83 82.5311 121.83 82.1302C121.806 80.6331 121.83 79.1241 121.83 77.6269C121.83 77.3557 121.83 77.0728 121.83 76.7663C121.558 76.7427 121.358 76.6955 121.157 76.6955C118.941 76.6955 116.724 76.6955 114.519 76.6955C114.094 76.6955 113.823 76.7427 113.729 77.2614C112.88 82.4485 110.993 87.2466 108.151 91.6793C108.092 91.7736 108.045 91.8914 107.939 92.1036C109.991 92.1036 111.936 92.0683 113.882 92.1272C114.684 92.1508 115.521 92.2569 116.264 92.5281C118.846 93.4712 120.344 95.6992 120.344 98.5522C120.344 102.242 120.344 105.932 120.32 109.622C120.32 110.235 120.45 110.541 121.087 110.777C125.013 112.263 127.112 116.672 125.874 120.715C124.612 124.806 120.403 127.223 116.181 126.268C112.113 125.337 109.33 121.317 109.979 117.202C110.474 114.055 112.243 111.874 115.215 110.706C115.663 110.53 115.828 110.329 115.816 109.834C115.792 106.097 115.816 102.348 115.804 98.6111C115.804 97.3261 115.156 96.6777 113.882 96.6777C110.875 96.6777 107.88 96.666 104.873 96.6895C104.567 96.6895 104.201 96.8663 103.953 97.0667C102.067 98.6936 100.192 100.332 98.3642 102.018C98.093 102.266 97.869 102.725 97.869 103.091C97.8336 106.757 97.8453 110.424 97.8453 114.09C97.8453 117.261 95.8879 119.242 92.7042 119.242C81.5847 119.242 70.4533 119.242 59.3338 119.242C55.9496 119.242 54.0393 117.308 54.0393 113.925C54.0393 110.306 54.0393 106.698 54.0393 103.079C54.0393 102.572 53.886 102.254 53.4969 101.924C51.6574 100.356 49.8769 98.7408 48.0374 97.1611C47.7426 96.9135 47.3063 96.6777 46.9407 96.6777C43.9574 96.6424 40.9859 96.6541 38.0026 96.6659C36.7291 96.6659 36.0924 97.3143 36.0924 98.5993C36.0924 102.313 36.0924 106.026 36.0689 109.752C36.0689 110.294 36.2339 110.541 36.7527 110.73C40.4671 112.157 42.5896 115.976 41.8585 119.866C41.1392 123.674 37.7315 126.48 33.7931 126.468C29.8311 126.468 26.5058 123.674 25.7747 119.737C25.0672 115.953 27.2133 112.133 30.8687 110.73C31.3875 110.53 31.5408 110.294 31.5408 109.752C31.5172 106.191 31.6234 102.619 31.5055 99.0591C31.3522 94.6736 34.6185 91.8207 38.4743 92.0801C40.019 92.1862 41.5756 92.0918 43.1321 92.0918C43.3797 92.0918 43.6155 92.0918 43.9339 92.0918L43.9575 92.0801ZM93.282 114.62C93.3056 114.208 93.341 113.807 93.341 113.406C93.341 109.846 93.3646 106.286 93.341 102.714C93.3292 100.851 94.0838 99.4481 95.5932 98.3753C99.0363 95.935 101.984 92.976 104.213 89.404C111.158 78.2517 111.866 66.6397 105.722 55.0276C99.8736 43.9578 90.2987 37.9926 77.8467 37.191C66.8097 36.4837 57.5415 40.6569 50.3486 49.027C43.4033 57.1142 40.8681 66.5925 42.7665 77.0728C44.3702 85.9852 49.0869 93.0586 56.4095 98.3871C57.8481 99.4363 58.6145 100.804 58.6145 102.596C58.6145 104.399 58.6145 106.215 58.6145 108.019C58.6145 109.952 58.6381 111.885 58.6027 113.819C58.5909 114.503 58.8032 114.703 59.4753 114.668C60.7252 114.62 61.9751 114.668 63.2132 114.656C63.4255 114.656 63.6496 114.62 63.909 114.597C63.909 112.463 63.909 110.412 63.909 108.349C63.909 106.922 64.8051 105.944 66.1022 105.932C67.4347 105.92 68.4016 106.899 68.4134 108.325C68.4252 110.152 68.4134 111.992 68.4134 113.819C68.4134 114.09 68.437 114.361 68.4605 114.62H73.7078C73.7078 114.29 73.7078 114.019 73.7078 113.748C73.7078 111.944 73.696 110.129 73.7078 108.325C73.7196 106.91 74.6512 105.956 75.9483 105.932C77.2925 105.92 78.224 106.875 78.2476 108.337C78.2712 110.093 78.2476 111.85 78.2476 113.607C78.2476 113.925 78.2476 114.255 78.2476 114.62H83.4831C83.4949 114.29 83.5303 113.996 83.5303 113.689C83.5303 111.909 83.5185 110.129 83.5303 108.349C83.5539 106.887 84.4854 105.92 85.8179 105.932C87.1504 105.932 88.0465 106.91 88.0583 108.396C88.0701 110.2 88.0583 112.015 88.0583 113.819C88.0583 114.09 88.0819 114.361 88.0937 114.679C89.6856 114.679 91.183 114.679 92.6806 114.679C92.8575 114.679 93.0344 114.644 93.282 114.62ZM118.115 29.8701C116.134 29.8701 114.495 31.4734 114.483 33.4303C114.472 35.4462 116.087 37.0967 118.092 37.0967C120.061 37.0967 121.723 35.4816 121.735 33.5364C121.759 31.5441 120.12 29.8819 118.115 29.8819V29.8701ZM33.8402 121.894C35.8566 121.894 37.4839 120.267 37.4721 118.251C37.4721 116.294 35.8212 114.668 33.852 114.668C31.8592 114.668 30.1966 116.33 30.2084 118.31C30.2202 120.256 31.871 121.882 33.8402 121.882V121.894ZM33.8638 29.8465C31.8592 29.8465 30.2084 31.497 30.232 33.4893C30.2438 35.4344 31.8946 37.0613 33.8638 37.0731C35.8566 37.0731 37.4956 35.4344 37.4838 33.4185C37.4838 31.4498 35.8566 29.8465 33.8638 29.8465ZM114.472 118.287C114.472 120.314 116.099 121.93 118.103 121.918C120.084 121.906 121.688 120.314 121.7 118.322C121.724 116.342 120.049 114.668 118.056 114.691C116.075 114.715 114.46 116.318 114.46 118.299L114.472 118.287Z" fill="black"/>
<path d="M101.972 69.5632C101.854 74.2788 99.2484 78.0394 94.6025 80.3619C90.1924 82.5664 85.8767 82.1066 81.844 79.3126C80.1814 78.1691 78.9786 76.5776 78.0117 74.8329C77.0566 73.1353 77.6343 71.0604 79.2969 69.9287C83.6127 67.005 87.9166 64.0814 92.256 61.1813C93.2229 60.5447 94.2252 59.8845 95.3101 59.5309C96.6071 59.1065 97.8924 59.5545 98.7532 60.6155C100.734 63.044 101.949 65.4371 101.972 69.575V69.5632Z" fill="black"/>
<path d="M62.8361 81.7174C56.7516 81.7646 49.2639 76.3771 50.0186 67.8066C50.2662 65.048 51.4336 62.6666 53.1906 60.5918C54.4287 59.1182 56.5041 58.9885 58.2492 60.1674C61.5627 62.3955 64.8643 64.6471 68.166 66.8752C69.64 67.8773 71.1139 68.8676 72.5879 69.8696C74.4628 71.1546 74.8872 73.3709 73.6845 75.2925C71.4912 78.8174 68.4608 81.0573 64.2748 81.5995C63.7913 81.6585 63.3078 81.6703 62.8361 81.7056V81.7174Z" fill="black"/>
<path d="M75.936 96.3829C73.9785 96.3829 72.0211 96.3947 70.0637 96.3829C68.0355 96.3712 67.0214 94.6028 68.0355 92.8345C69.9929 89.4157 71.9622 86.0087 73.9432 82.6017C74.8983 80.9513 77.009 80.9277 77.9759 82.5782C79.9805 86.0205 81.9733 89.4747 83.9543 92.9524C84.8858 94.591 83.8599 96.3594 81.9615 96.3947C79.9569 96.4301 77.9405 96.3947 75.936 96.3947C75.936 96.3947 75.936 96.3947 75.936 96.3829Z" fill="black"/>
<path d="M82.4102 73.3004C84.2025 76.0826 86.7023 77.4265 89.8743 77.061C93.1996 76.6838 95.6758 74.8683 96.9139 71.7207C97.9398 69.1153 97.527 66.5925 95.7819 64.2583C91.3128 67.2763 86.9028 70.2589 82.4102 73.3004Z" fill="white"/>
<path d="M56.1505 64.2349C54.2992 66.8166 53.9218 69.5163 55.2543 72.2513C56.7872 75.3636 59.4286 77.0729 62.9425 77.1083C65.8078 77.1437 67.9539 75.7408 69.5104 73.2887C65.0414 70.259 60.6313 67.2764 56.1387 64.2349H56.1505Z" fill="white"/>
<path d="M75.9718 88.2017C75.2525 89.4513 74.604 90.5712 73.8965 91.7973H78.0472C77.3397 90.5712 76.6911 89.4395 75.9718 88.2017Z" fill="white"/>
</svg>
